<svg xmlns="http://www.w3.org/2000/svg" xmlns:xlink="http://www.w3.org/1999/xlink" viewBox="0 0 555.57 604.35"><defs><style>.cls-1{font-size:47.17px;font-family:Montserrat-Light, Montserrat;font-weight:300;}.cls-1,.cls-4{fill:#fff;}.cls-2{fill:url(#linear-gradient);}.cls-3{fill:url(#linear-gradient-2);}</style><linearGradient id="linear-gradient" x1="46.64" y1="306.05" x2="505.64" y2="306.05" gradientUnits="userSpaceOnUse"><stop offset="0.17" stop-color="#27b357"/><stop offset="0.85" stop-color="#00904f"/></linearGradient><linearGradient id="linear-gradient-2" x1="-0.5" y1="334.14" x2="551.77" y2="334.14" gradientTransform="translate(10.68 -36.24) rotate(1.72)" xlink:href="#linear-gradient"/></defs><g id="Layer_2" data-name="Layer 2"><g id="Layer_1-2" data-name="Layer 1"><text class="cls-1" transform="translate(503.8 429.15) rotate(122.19)">P</text><text class="cls-1" transform="matrix(-0.68, 0.73, -0.73, -0.68, 475.27, 471.01)">L</text><text class="cls-1" transform="translate(443.76 503.16) rotate(143.26)">A</text><text class="cls-1" transform="translate(402.39 532.16) rotate(155.04)">N</text><text class="cls-1" transform="translate(351 553.6) rotate(166.16)">T</text><text class="cls-1" transform="matrix(-1, 0.1, -0.1, -1, 307.63, 562.43)"> </text><text class="cls-1" transform="translate(277.93 564.8) rotate(-176.71)">P</text><text class="cls-1" transform="translate(229.14 560.54) rotate(-165.89)">A</text><text class="cls-1" transform="translate(180.53 546.38) rotate(-155.21)">L</text><text class="cls-1" transform="translate(140.26 526.28) rotate(-144.59)">A</text><text class="cls-1" transform="matrix(-0.69, -0.73, 0.73, -0.69, 100.35, 495.93)">C</text><text class="cls-1" transform="translate(66.49 457.64) rotate(-122.43)">E</text><circle class="cls-2" cx="276.14" cy="306.05" r="229.5"/><path class="cls-3" d="M5.13,297.9a270.17,270.17,0,0,1,11.2-69.49c-1.59-.63-3.16-1.26-4.73-1.93A279.27,279.27,0,0,0,10,380.09c1.61-.55,3.23-1.07,4.87-1.58A269.79,269.79,0,0,1,5.13,297.9Zm541-50.45q-2.46.66-4.93,1.26A271.91,271.91,0,0,1,534,389.92c1.63.47,3.27,1,4.88,1.49a279.58,279.58,0,0,0,7.22-144ZM275.92,577.19h-.44v.25c-.05,1.58-.12,3.17-.2,4.75h.56c0-1.58,0-3.16.08-4.75ZM291.28,30.32c.09,1.68.15,3.35.18,5,.36,0,.71,0,1.07.06.14-1.66.31-3.33.49-5Z"/><text class="cls-1" transform="matrix(0.56, -0.83, 0.83, 0.56, 52.28, 176.16)">P</text><text class="cls-1" transform="matrix(0.7, -0.71, 0.71, 0.7, 82.06, 135.17)">L</text><text class="cls-1" transform="translate(114.52 103.98) rotate(-35.01)">A</text><text class="cls-1" transform="translate(156.75 76.24) rotate(-23.24)">N</text><text class="cls-1" transform="translate(208.76 56.36) rotate(-12.11)">T</text><text class="cls-1" transform="translate(252.37 48.84) rotate(-3.87)"> </text><text class="cls-1" transform="matrix(1, 0.09, -0.09, 1, 282.13, 47.37)">P</text><text class="cls-1" transform="translate(330.78 53.09) rotate(15.83)">A</text><text class="cls-1" transform="translate(378.94 68.71) rotate(26.51)">L</text><text class="cls-1" transform="matrix(0.8, 0.6, -0.6, 0.8, 418.59, 90)">A</text><text class="cls-1" transform="translate(457.56 121.55) rotate(48.25)">C</text><text class="cls-1" transform="matrix(0.51, 0.86, -0.86, 0.51, 490.25, 160.84)">E</text><path class="cls-4" d="M231.81,391.4H341c-2.73,17.67-5.29,34.55-8,51.41-1.47,9.21-3.24,18.37-4.72,27.58-.93,5.79-3.55,8.53-10,8.44-21.63-.33-43.27.22-64.89-.38-3.37-.09-9-3.92-9.58-6.79C239,446.3,235,420.77,230.9,395.28,230.75,394.33,231.35,393.25,231.81,391.4Z"/><path class="cls-4" d="M235.68,255.44c-7-13.77-14.17-27.46-21-41.33-3.07-6.27-2.72-13.41,4.93-14.62,3.49-.56,10.08,5,11.81,9.15,7.63,18.41,16.74,35.59,29.63,48.11,21-19.68,57.51-31.62,58.29-63,.24-6.71,1.34-14.12,10.38-13.27s8.52,8.55,7.92,15.08c-2.11,38.19-37.08,47.14-57.83,73.68-1.73,1.88-2.05,7.79-.46,9.58,17.24,19.36,15.89,43.38,17,66.57,1.16,24.15.58,24.14,25.3,24.25,11,.09,22.35-2.32,29.11,8.67-4.87,6.06-9.78,10.42-18.08,8.81q-47.13.16-94.25.23c-6.95-.32-18,.95-18.15-8.72,0-8.52,7.73-9.31,14.41-9.41,40.89-2.55,37.39,12.59,41.08-30.28C283.25,302.48,256,279,235.68,255.44Z"/><path class="cls-4" d="M237.81,218.46c-2.07-8.36-2.23-15-1.16-24.14l-12.52,1.61c-11.69-17.12-2.09-42.46,18.32-45.34v32.35l19.79-10.05C268.51,195.86,256.54,217.54,237.81,218.46Z"/><path class="cls-4" d="M314,204.13c-5.85,13-7,20.2-23.08,6.37-9.94-7.29-17.24-33.65-1.84-38C300.34,173.47,313.59,188.91,314,204.13Z"/><path class="cls-4" d="M216.65,193.48c-17.27,16-42.24-16.2-34.62-33.63C196.5,146.4,217.81,176.11,216.65,193.48Z"/><path class="cls-4" d="M211.76,210.63c-12.5,15.18-34,18-46.17,6-7.61-7.49-7-11.31,2.39-15.7C184.67,193.11,202.89,197.16,211.76,210.63Z"/><path class="cls-4" d="M370.11,197.67c9,.27,19.14,2.67,9.88,13.74-10.44,14.32-24.55,18.91-38.07,12.65C320.85,214.65,356.23,195.05,370.11,197.67Z"/><path class="cls-4" d="M289.67,138.1c20.29-1.3,35,17.23,32.49,40C300.59,183.62,286.2,166.29,289.67,138.1Z"/><path class="cls-4" d="M193.87,253.48c-.5,0-2.35.41-3.3-.31-6.54-5-12.9-10.23-19.31-15.38,7.36-3.81,13.62-11.1,22.18-11.62,11.39-.93,28.16,6.43,29.09,12.7C223.38,244.61,206.73,253.38,193.87,253.48Z"/><path class="cls-4" d="M340.8,190.69c5.31-22,30.35-29.05,51.13-15.24C384.65,194.1,367.2,196,340.8,190.69Z"/><path class="cls-4" d="M226.21,272.53l14.18-7c12.76,14.48,10.07,22.86-14.7,47.76-14.63-8.38-8.81-29.23.86-41Z"/><path class="cls-4" d="M353.58,133.27c7.08,17.84,1.3,33.16-15.1,41.58C319.16,184.76,320.33,139.39,353.58,133.27Z"/><path class="cls-4" d="M267.84,249.22c-16.91-12.45-14.9-38.89,2.69-47.23,2.11-1,7.7.9,8.82,3C289.92,220.94,276.09,235.1,267.84,249.22Z"/><path class="cls-4" d="M310.43,252.23c-1.4-22.44,39,6,33.23,27C331.07,292.41,308.2,267.87,310.43,252.23Z"/><path class="cls-4" d="M226.55,272.21c-9.33,1.07-18.65,2.76-28,3-19.74.44,5.44-35.57,37.13-19.8,0,0-.27-.29-.27-.28q-4.59,8.7-9.2,17.38Z"/><path class="cls-4" d="M368.91,251.81c-21,8.19-38.81,0-42.37-19.39C342.15,224.35,364.45,234.56,368.91,251.81Z"/><path class="cls-4" d="M299.4,251.93c14.7,16.32,13.86,29.22-1.85,38.61C284.55,279.06,285.27,260.43,299.4,251.93Z"/></g></g></svg>